<svg class="icon" style="width: 1em;height: 1em;vertical-align: middle;fill: currentColor;overflow: hidden;" viewBox="0 0 1024 1024" version="1.1" xmlns="http://www.w3.org/2000/svg" p-id="960"><path d="M862.51879883 439.40783691c-69.21386719 0-136.53259278-22.49450684-191.90368653-64.1052246v290.28625488c0 148.23303223-114.20288086 268.28613281-255.10253905 268.28613281S160.41003418 813.82189942 160.41003418 665.58886719c0-148.23303223 114.20288086-268.28613281 255.10253907-268.28613281 14.08996583 0 27.76794434 1.23596192 41.116333 3.54309081v153.75366211c-12.77160645-5.02624512-26.3671875-7.58056641-40.04516602-7.5805664-62.8692627 0-113.87329102 53.55834961-113.87329101 119.72351074 0 66.08276367 51.00402833 119.72351075 113.87329101 119.72351075 62.78686523 0 113.79089356-53.64074708 113.79089356-119.72351075V90.125H672.67504883c0 110.82458497 85.446167 200.63781739 190.83251953 200.63781739v148.56262206l-0.98876953 0.08239747" fill="#666666" p-id="961"></path></svg>