<?xml version="1.0" standalone="no"?>
<svg xmlns="http://www.w3.org/2000/svg" width="48" height="48"><rect width="48" height="48" opacity="0"></rect><g><path d="M15.01 6Q13.34 6 12.17 7.19Q10.99 8.38 10.99 9.98L10.99 37.97Q10.99 39.6 12.17 40.78Q13.34 41.95 15.01 41.95Q16.61 41.95 17.81 40.78Q19.01 39.6 19.01 37.97L19.01 9.98Q19.01 8.38 17.81 7.19Q16.61 6 15.01 6ZM33.01 6Q31.34 6 30.17 7.19Q28.99 8.38 28.99 9.98L28.99 37.97Q28.99 39.6 30.17 40.78Q31.34 41.95 33.01 41.95Q34.61 41.95 35.81 40.78Q37.01 39.6 37.01 37.97L37.01 9.98Q37.01 8.38 35.81 7.19Q34.61 6 33.01 6Z" fill="rgba(0,0,0,0.9019607843137255)"></path></g></svg>