<svg class="icon" style="width: 1em;height: 1em;vertical-align: middle;fill: currentColor;overflow: hidden;" viewBox="0 0 1024 1024" version="1.1" xmlns="http://www.w3.org/2000/svg" p-id="926"><path d="M746.66666666 115.2c-44.8 0-83.2 19.2-115.2 44.8C593.06666666 89.6 522.66666666 44.8 439.46666666 44.8 324.26666666 44.8 228.26666666 134.4 228.26666666 256s96 211.2 211.2 211.2c64 0 121.6-32 160-76.8 32 44.8 83.2 76.8 147.2 76.8 96 0 172.8-76.8 172.8-172.8 0-102.4-76.8-179.2-172.8-179.2zM439.46666666 384c-70.4 0-128-57.6-128-128s57.6-128 128-128 128 57.6 128 128-57.6 128-128 128zM746.66666666 384c-51.2 0-96-44.8-96-96S689.06666666 192 746.66666666 192c51.2 0 96 44.8 96 96-6.4 51.2-44.8 96-96 96zM753.06666666 499.2H535.46666666c-83.2 0-147.2 51.2-166.4 128L247.46666666 556.8C177.06666666 518.4 87.46666666 569.6 87.46666666 646.4v153.6c0 83.2 89.6 134.4 160 89.6l115.2-64c19.2 76.8 89.6 128 166.4 128h224c96 0 172.8-76.8 172.8-172.8v-102.4c6.4-102.4-70.4-179.2-172.8-179.2z m-416 249.6l-134.4 76.8c-12.8 6.4-32 0-32-19.2v-153.6c0-19.2 19.2-32 32-19.2l134.4 76.8c6.4 6.4 12.8 12.8 12.8 19.2 0 6.4-6.4 12.8-12.8 19.2z m512 32c0 51.2-44.8 96-96 96H535.46666666c-51.2 0-96-44.8-96-96v-102.4c0-51.2 44.8-96 96-96h224c51.2 0 96 44.8 96 96v102.4z" fill="#606060" p-id="927"></path></svg>