<?xml version="1.0" standalone="no"?>
<svg xmlns="http://www.w3.org/2000/svg" width="48" height="48"><rect width="48" height="48" opacity="0"></rect><g><path d="M17.38 20.35Q15.98 21.17 15.5 22.58Q15.02 24 15.5 25.42Q15.98 26.83 17.38 27.65L34.7 37.63Q36.1 38.4 37.56 38.09Q39.02 37.78 40.01 36.65Q40.99 35.52 40.99 33.94L40.99 14.02Q40.99 12.43 40.01 11.33Q39.02 10.22 37.56 9.91Q36.1 9.6 34.7 10.37L17.38 20.35ZM10.51 36.91Q11.9 36.91 12.94 35.88Q13.97 34.85 13.97 33.41L13.97 14.35Q13.97 12.96 12.94 11.9Q11.9 10.85 10.51 10.85Q9.12 10.85 8.06 11.88Q7.01 12.91 7.01 14.35L7.01 33.41Q7.01 34.85 8.04 35.88Q9.07 36.91 10.51 36.91Z" fill="rgba(0,0,0,0.9019607843137255)"></path></g></svg>