<?xml version="1.0" standalone="no"?>
<svg xmlns="http://www.w3.org/2000/svg" width="48" height="48"><rect width="48" height="48" opacity="0"></rect><g><path d="M13.3 10.37Q11.9 9.6 10.44 9.91Q8.98 10.22 7.99 11.33Q7.01 12.43 7.01 14.02L7.01 33.94Q7.01 35.52 7.99 36.65Q8.98 37.78 10.44 38.09Q11.9 38.4 13.3 37.63L30.58 27.65Q31.97 26.83 32.45 25.42Q32.93 24 32.45 22.58Q31.97 21.17 30.58 20.35L13.3 10.37ZM37.49 36.91Q38.93 36.91 39.96 35.88Q40.99 34.85 40.99 33.41L40.99 14.35Q40.99 12.91 39.96 11.88Q38.93 10.85 37.49 10.85Q36.1 10.85 35.06 11.88Q34.03 12.91 34.03 14.35L34.03 33.41Q34.03 34.85 35.04 35.88Q36.05 36.91 37.49 36.91Z" fill="rgba(0,0,0,0.9019607843137255)"></path></g></svg>